:SAMPLES-PER-SECOND 30
:FULLY-SPECIFIED
:DEGREES
222
root  -26.0595 23.956 2.29387 21.1789 27.3905 2.03319
RightUpLeg  -40.119 -13.2752 -25.7215
RightLeg  72.5821 0.0530307 -0.0663226
RightFoot  -31.5171 0.741874 3.00618
RightToes  -58.9849 -0.384988 -0.395518
Spine  21.5237 3.44235 3.0872
Spine1  35.8125 13.3861 -0.0213069
HEad  1.50569 10.0647 -11.2656
LeftShoulder1  0 -2.42657e-020 -4.95415e-022
LeftArm  -14.0998 -32.5604 -91.3042
LeftForeArm  21.7311 -42.1108 -9.17641
LeftHand  -0.404487 -5.54208 7.98217
RightShoulder  0 2.42657e-020 1.07489e-018
RightArm  -45.4997 51.851 53.7067
RightForeArm  66.2016 15.9195 2.81951
RightHand  -3.9247 22.3544 -19.3101
LeftUpLeg  -84.6581 11.9405 9.14863
LeftLeg  67.863 1.91321 3.93299
LeftFoot  -14.1401 -0.274174 -2.21036
LeftToes  -21.2629 2.34596e-006 -6.06653e-008
223
root  -24.4975 23.6295 2.98712 20.572 29.9795 0.978973
RightUpLeg  -33.8166 -15.2496 -26.9451
RightLeg  68.7947 0.0396704 -0.0703729
RightFoot  -30.9053 0.687608 2.86467
RightToes  -61.3419 -0.407251 -0.401526
Spine  21.0888 2.95986 4.13893
Spine1  35.3404 11.6599 2.44359
HEad  1.98324 8.40636 -10.6741
LeftShoulder1  0 -2.42657e-020 -4.95415e-022
LeftArm  -13.3778 -31.0591 -92.8438
LeftForeArm  21.1376 -43.7901 -9.73955
LeftHand  -0.382695 -6.21114 6.68218
RightShoulder  0 2.42657e-020 1.07489e-018
RightArm  -73.5072 47.739 53.7846
RightForeArm  46.8958 9.39236 1.65214
RightHand  -1.51811 22.3964 -7.28931
LeftUpLeg  -86.2944 15.0475 5.65594
LeftLeg  71.8225 3.64854 8.99643
LeftFoot  -12.676 -0.367484 -3.30761
LeftToes  -20.7166 2.34596e-006 -6.06653e-008
224
root  -22.3794 23.8903 3.75954 20.1371 32.8326 0.703415
RightUpLeg  -24.4848 -15.8089 -28.9891
RightLeg  60.3256 -0.574322 -0.961947
RightFoot  -26.639 0.59504 2.89062
RightToes  -64.3466 -0.435957 -0.407849
Spine  19.5997 1.58692 4.42626
Spine1  32.8867 7.35994 4.76395
HEad  2.31385 7.81204 -9.9863
LeftShoulder1  0 -2.42657e-020 -4.95415e-022
LeftArm  -14.1629 -27.4226 -93.2227
LeftForeArm  22.7495 -43.7654 -9.73136
LeftHand  -0.462591 -6.95846 7.23468
RightShoulder  0 2.42657e-020 1.07489e-018
RightArm  -74.8583 37.4365 59.0518
RightForeArm  23.8899 15.0788 2.72033
RightHand  0.583589 21.5205 3.44116
LeftUpLeg  -85.6898 17.6394 -0.409362
LeftLeg  73.3507 3.23738 8.64739
LeftFoot  -6.98176 -0.114979 -1.88464
LeftToes  -29.4734 2.34596e-006 -6.06653e-008
225
root  -19.8095 24.6607 4.5021 20.5898 36.1648 2.16125
RightUpLeg  -15.7976 -8.45363 -29.8964
RightLeg  53.5421 -6.84901 -8.10144
RightFoot  -14.8686 0.562712 4.68821
RightToes  -64.6806 -0.439168 -0.408458
Spine  17.7945 -0.395844 4.11744
Spine1  29.7222 1.90217 6.33254
HEad  2.9491 8.20799 -10.9838
LeftShoulder1  0 -2.42657e-020 -4.95415e-022
LeftArm  -16.1755 -22.5634 -93.4436
LeftForeArm  26.8804 -42.9046 -9.43865
LeftHand  -0.472735 -8.96362 5.66002
RightShoulder  0 2.42657e-020 1.07489e-018
RightArm  -62.5289 25.9374 61.756
RightForeArm  12.9327 22.5508 4.19246
RightHand  1.75535 22.5663 9.15412
LeftUpLeg  -82.081 15.4891 -4.98142
LeftLeg  72.6969 0.258302 0.6553
LeftFoot  -1.24734 -0.00406521 -0.373456
LeftToes  -25.7998 2.34596e-006 -6.06653e-008
226
root  -17.1474 25.8051 5.14933 21.309 37.1401 3.64449
RightUpLeg  -14.5151 -2.43887 -29.0288
RightLeg  55.9465 -13.5117 -16.8434
RightFoot  -0.639938 0.00829227 1.86435
RightToes  -43.3261 -0.245584 -0.33313
Spine  16.0938 -1.86861 3.13055
Spine1  26.9645 -2.45742 6.5851
HEad  3.28035 10.503 -12.0976
LeftShoulder1  0 -2.42657e-020 -4.95415e-022
LeftArm  -18.7877 -17.5556 -93.4863
LeftForeArm  27.2111 -42.4851 -9.29903
LeftHand  -0.483239 -8.77583 5.92603
RightShoulder  0 2.42657e-020 1.07489e-018
RightArm  -58.8751 16.6623 66.0661
RightForeArm  7.94049 32.1328 6.35
RightHand  2.3763 23.1931 11.9156
LeftUpLeg  -75.9743 12.4754 -7.63069
LeftLeg  71.4827 0.803788 1.95186
LeftFoot  -6.41109 -0.0300749 -0.537001
LeftToes  -17.2131 2.34596e-006 -6.06653e-008
227
root  -14.7275 27.0084 5.84482 20.1141 37.2869 2.21504
RightUpLeg  -18.4015 -4.09507 -25.2823
RightLeg  60.188 -6.36151 -9.5856
RightFoot  -1.89371 0.0166773 1.38711
RightToes  -41.6553 -0.23184 -0.324281
Spine  14.9414 -2.79839 2.75991
Spine1  25.397 -5.45932 7.10626
HEad  2.7757 14.0367 -13.3618
LeftShoulder1  0 -2.42657e-020 -4.95415e-022
LeftArm  -21.1164 -13.7585 -93.0355
LeftForeArm  26.7008 -42.7211 -9.37741
LeftHand  -0.484102 -8.29706 6.30208
RightShoulder  0 2.42657e-020 1.07489e-018
RightArm  -56.0026 10.038 70.031
RightForeArm  1.16292 42.0582 9.14397
RightHand  2.20983 21.6298 11.9038
LeftUpLeg  -69.7713 11.6301 -8.17674
LeftLeg  69.2463 1.32046 2.8881
LeftFoot  -10.145 -0.0704871 -0.794093
LeftToes  -13.5126 2.34596e-006 -6.06653e-008
228
root  -12.4506 28.1806 6.48734 18.1519 37.0306 0.209976
RightUpLeg  -24.976 -9.37247 -19.1125
RightLeg  65.5107 -2.12772 -4.08885
RightFoot  -6.15453 0.0367815 1.06184
RightToes  -44.4552 -0.255016 -0.338881
Spine  14.2421 -3.9292 2.55766
Spine1  24.7717 -8.36529 6.8008
HEad  2.55766 18.9243 -15.7553
LeftShoulder1  0 -2.42657e-020 -4.95415e-022
LeftArm  -24.9023 -9.90303 -91.7715
LeftForeArm  26.6544 -44.1162 -9.853
LeftHand  -0.481458 -8.24217 6.31001
RightShoulder  0 2.42657e-020 1.07489e-018
RightArm  -54.1181 6.76867 74.5633
RightForeArm  2.40254 51.6224 12.8725
RightHand  1.1635 20.1244 6.92218
LeftUpLeg  -62.9802 11.2141 -7.97207
LeftLeg  66.0216 1.87369 3.55635
LeftFoot  -12.9556 -0.121363 -1.06885
LeftToes  -10.74 2.34596e-006 -6.06653e-008
229
root  -10.0941 29.3307 7.06621 17.0919 35.3324 -0.393433
RightUpLeg  -32.8172 -11.5535 -12.7426
RightLeg  66.7321 -2.59227 -5.21593
RightFoot  -9.54582 0.0732694 1.25514
RightToes  -43.5846 -0.247733 -0.334463
Spine  13.9503 -4.80205 2.20856
Spine1  24.8232 -10.1397 5.08169
HEad  2.60081 23.9816 -18.5288
LeftShoulder1  0 -2.42657e-020 -4.95415e-022
LeftArm  -28.5879 -6.71985 -90.2976
LeftForeArm  26.2137 -44.2165 -9.88814
LeftHand  -0.479854 -7.46175 6.98525
RightShoulder  0 2.42657e-020 1.07489e-018
RightArm  -53.2289 5.15116 78.1353
RightForeArm  9.65104 59.7174 17.6281
RightHand  1.05417 21.8033 5.84109
LeftUpLeg  -55.9243 10.2962 -8.30005
LeftLeg  62.2664 2.58858 4.21766
LeftFoot  -13.2494 -0.147769 -1.27228
LeftToes  -12.0489 2.34596e-006 -6.06653e-008
230
root  -7.88004 30.3728 7.5693 16.6704 32.2475 -0.989151
RightUpLeg  -41.1627 -7.54161 -6.40722
RightLeg  63.5461 -5.08513 -8.78344
RightFoot  -12.1107 0.192402 2.19126
RightToes  -38.8588 -0.209431 -0.308585
Spine  13.7943 -4.91196 2.01279
Spine1  24.7985 -10.2795 3.64372
HEad  2.45675 27.9825 -22.0803
LeftShoulder1  0 -2.42657e-020 -4.95415e-022
LeftArm  -31.0875 -4.84287 -89.2769
LeftForeArm  24.9432 -42.8582 -9.42338
LeftHand  -0.431373 -7.05096 6.62966
RightShoulder  0 2.42657e-020 1.07489e-018
RightArm  -51.6417 5.15494 79.2744
RightForeArm  19.297 66.0764 23.543
RightHand  0.79985 22.6029 4.37199
LeftUpLeg  -52.3212 11.0756 -8.99154
LeftLeg  61.7573 2.05751 3.28681
LeftFoot  -8.52954 -0.0531589 -0.712853
LeftToes  -18.7886 2.34596e-006 -6.06653e-008
231
root  -5.76242 31.1427 8.13706 15.9052 28.9552 -1.8246
RightUpLeg  -46.9111 1.54056 -2.43313
RightLeg  55.7543 -5.82528 -7.48262
RightFoot  -10.463 0.108176 1.55907
RightToes  -41.2851 -0.228829 -0.322266
Spine  13.9585 -4.63899 1.83778
Spine1  25.2777 -9.59259 2.27295
HEad  1.60896 31.521 -24.9998
LeftShoulder1  0 -2.42657e-020 -4.95415e-022
LeftArm  -32.6705 -3.72062 -88.1052
LeftForeArm  22.9317 -42.1333 -9.18388
LeftHand  -0.388291 -6.52481 6.44086
RightShoulder  0 2.42657e-020 1.07489e-018
RightArm  -48.2882 7.13072 79.0764
RightForeArm  29.2929 70.7297 30.5076
RightHand  0.643802 22.9727 3.53844
LeftUpLeg  -51.3038 12.8233 -8.21692
LeftLeg  65.5319 -1.7572 -3.29298
LeftFoot  -0.555619 -0.000822234 -0.169585
LeftToes  -25.1092 2.34596e-006 -6.06653e-008
232
root  -3.48241 31.4522 8.87008 14.2621 27.5313 -1.05571
RightUpLeg  -49.6333 10.922 -3.09918
RightLeg  47.1156 -0.254765 -0.279301
RightFoot  -4.15647 -0.0237825 -0.277874
RightToes  -49.8946 -0.301948 -0.363931
Spine  14.4258 -5.06849 1.40292
Spine1  26.3882 -10.0634 -0.0168772
HEad  1.9636 35.1397 -27.202
LeftShoulder1  0 -2.42657e-020 -4.95415e-022
LeftArm  -34.1564 -2.65593 -86.2493
LeftForeArm  22.1536 -42.281 -9.23214
LeftHand  -0.369106 -6.26322 6.37576
RightShoulder  0 2.42657e-020 1.07489e-018
RightArm  -42.8395 10.0024 79.2368
RightForeArm  39.1586 73.9926 38.2709
RightHand  0.37062 23.4597 2.15542
LeftUpLeg  -48.5263 12.0189 -6.41192
LeftLeg  70.4642 -6.31428 -14.3959
LeftFoot  5.86653 0.0986124 -1.92435
LeftToes  -35.2268 2.34596e-006 -6.06653e-008
